<svg xmlns="http://www.w3.org/2000/svg" viewBox="0 0 100 100">
	<circle cx="50" cy="50" r="50" />
	<g fill="#ffffff" class="collapse">
		<path d="M22.7,12.6l-0.1,4l54.6,0v-3.9L22.7,12.6z" />
		<path d="M26.8,48l-0.1,4l46.5,0v-3.9L26.8,48z" />
		<path d="M22.7,82.8l-0.1,4l54.6,0v-3.9L22.7,82.8z" />
		<polygon
			points="64.7,58.1 50,72.7 35.4,58.1 31.7,61.7 43.3,73.4 49.9,80 56.6,73.3 68.3,61.7 " />
		<polygon
			points="35.3,41.3 50,26.7 64.6,41.3 68.3,37.7 56.7,26 50.1,19.4 43.4,26.1 31.7,37.7 " />
	</g>
	<g fill="#ffffff" class="expand">
		<polygon
			points="64.7,22.1 50,36.7 35.4,22.1 31.7,25.7 43.3,37.4 49.9,44 56.6,37.3 68.3,25.7 " />
		<polygon
			points="35.3,77.3 50,62.7 64.6,77.3 68.3,73.7 56.7,62 50.1,55.4 43.4,62.1 31.7,73.7 " />
		<path d="M52.4,6.5l-4.9,0l-0.1,30.3h4.9L52.4,6.5z" />
		<path d="M22.8,48l-0.1,4l54.6,0v-3.9L22.8,48z" />
		<path d="M52.4,62.7l-4.9,0L47.4,93h4.9L52.4,62.7z" />
	</g>
</svg>