<?xml version="1.0" encoding="utf-8"?>
<!-- Generator: Adobe Illustrator 27.8.1, SVG Export Plug-In . SVG Version: 6.00 Build 0)  -->
<svg version="1.1" id="Layer_1" xmlns="http://www.w3.org/2000/svg" xmlns:xlink="http://www.w3.org/1999/xlink" x="0px" y="0px"
	 viewBox="0 0 100 100" style="enable-background:new 0 0 100 100;" xml:space="preserve">
<style type="text/css">
	.st0{fill:#FFFFFF;}
</style>
<circle cx="50" cy="50" r="50"/>
<g>
	<polygon class="st0" points="28.7,65.4 20,65.4 20,74.1 	"/>
	<polygon class="st0" points="30.5,75.4 50,75.4 50,65.4 40.5,65.4 	"/>
	<polygon class="st0" points="50.9,55 80,55 80,45 60.9,45 	"/>
	<polygon class="st0" points="49.1,45 20,45 20,55 39.1,55 	"/>
	<polygon class="st0" points="69.5,24.6 20,24.6 20,34.6 59.5,34.6 	"/>
	<rect x="5.2" y="48" transform="matrix(0.7071 -0.7071 0.7071 0.7071 -20.7107 50)" class="st0" width="89.6" height="4"/>
</g>
<g>
	<rect x="20" y="45" class="st0" width="60" height="10"/>
	<rect x="20" y="24.6" class="st0" width="50" height="10"/>
	<rect x="20" y="65.4" class="st0" width="30" height="10"/>
</g>
</svg>
