<?xml version="1.0" encoding="UTF-8"?>
<svg id="Layer_1" xmlns="http://www.w3.org/2000/svg" viewBox="0 0 100 100">
    <circle cx="50" cy="50" r="50" stroke-width="0" />
    <polygon points="28.7 65.4 20 65.4 20 74.1 28.7 65.4" fill="#fff" stroke-width="0" />
    <polygon points="30.5 75.4 50 75.4 50 65.4 40.5 65.4 30.5 75.4" fill="#fff" stroke-width="0" />
    <polygon points="50.9 55 80 55 80 45 60.9 45 50.9 55" fill="#fff" stroke-width="0" />
    <polygon points="49.1 45 20 45 20 55 39.1 55 49.1 45" fill="#fff" stroke-width="0" />
    <polygon points="69.5 24.6 20 24.6 20 34.6 59.5 34.6 69.5 24.6" fill="#fff" stroke-width="0" />
    <rect x="5.2" y="48" width="89.6" height="4" transform="translate(-20.71 50) rotate(-45)"
        fill="#fff" stroke-width="0" />
    <rect x="20" y="45" width="60" height="10" fill="#fff" stroke-width="0" />
    <rect x="20" y="24.6" width="50" height="10" fill="#fff" stroke-width="0" />
    <rect x="20" y="65.4" width="30" height="10" fill="#fff" stroke-width="0" />
</svg>