<?xml version="1.0" encoding="utf-8"?>
<!-- Generator: Adobe Illustrator 26.5.0, SVG Export Plug-In . SVG Version: 6.00 Build 0)  -->
<svg version="1.1" id="hero-play-ad-button" xmlns="http://www.w3.org/2000/svg" xmlns:xlink="http://www.w3.org/1999/xlink"
	 x="0px" y="0px" viewBox="0 0 100 100" style="enable-background:new 0 0 100 100;" xml:space="preserve">
<style type="text/css">
	.st0{fill:#FFFFFF;}
</style>
<g>
	<circle cx="50" cy="50" r="45"/>
	<polygon class="st0" points="40.3,54.6 40.3,85.1 66.8,69.8 	"/>
</g>
<g id="svg-ad">
	<path class="st0" d="M42.7,25.2c0-0.3-0.1-0.5-0.3-0.7c-0.2-0.2-0.4-0.3-0.7-0.3h-9.7c-0.3,0-0.6,0.1-0.8,0.4l-16.1,22
		c-0.3,0.3-0.3,0.7-0.1,1c0.2,0.3,0.5,0.5,0.9,0.5h7.8c0.3,0,0.6-0.1,0.8-0.5l1.6-2.3h8.4v1.8c0,0.3,0.1,0.5,0.3,0.7
		c0.2,0.2,0.4,0.3,0.7,0.3h6.3c0.3,0,0.5-0.1,0.7-0.3c0.2-0.2,0.3-0.4,0.3-0.7C42.7,47.2,42.7,25.2,42.7,25.2z M29.6,39l5-7.7V39
		H29.6z M66.8,36.1c0-3.8-1.2-6.7-3.7-8.8c-2.4-2.1-5.6-3.1-9.5-3.1h-7.7c-0.3,0-0.5,0.1-0.7,0.3C45,24.7,45,24.9,45,25.2v22
		c0,0.3,0.1,0.5,0.3,0.7c0.2,0.2,0.4,0.3,0.7,0.3h7.8c3.9,0,7-1.1,9.4-3.2C65.6,42.8,66.8,39.9,66.8,36.1z M57.9,40.2
		c-1.1,1.1-2.5,1.7-4.2,1.7h-1.5V30.6h1.5c1.9,0,3.3,0.5,4.3,1.5c1,1,1.5,2.4,1.5,4.1C59.4,37.7,59,39.1,57.9,40.2z"/>
	<path class="st0" d="M71.4,36.2c-0.1,4-1.3,9-4.3,12h-1.5c2.7-3.2,3.9-8,4-12.1c-0.1-4-1.7-8.4-4-11.9h1.3
		C69.7,27.4,71.2,32.1,71.4,36.2z"/>
	<path class="st0" d="M76.6,36.2c-0.1,4-1.3,9-4.3,12h-1.5c2.7-3.2,3.9-8,4-12.1c-0.1-4-1.7-8.4-4-11.9h1.3
		C75,27.4,76.4,32.1,76.6,36.2z"/>
	<path class="st0" d="M81.9,36.2c-0.1,4-1.3,9-4.3,12h-1.5c2.7-3.2,3.9-8,4-12.1c-0.1-4-1.7-8.4-4-11.9h1.3
		C80.3,27.4,81.7,32.1,81.9,36.2z"/>
</g>
</svg>
