<svg id="i-ad" xmlns="http://www.w3.org/2000/svg" viewBox="0 0 100 100">
    <g id="svg-ad">
        <path d="M41.5 33.6c0-.4-.1-.8-.4-1-.3-.3-.6-.4-1-.4H25.6c-.5 0-.9.2-1.2.6L.3 65.6c-.4.5-.4 1-.2 1.5.3.5.7.8 1.3.8H13c.5 0 .9-.2 1.2-.7l2.4-3.5h12.6v2.7c0 .4.1.8.4 1 .3.3.6.4 1 .4H40c.4 0 .7-.1 1-.4.3-.3.4-.6.4-1l.1-32.8zM21.9 54.2l7.4-11.5v11.5h-7.4zM77.4 49.9c0-5.6-1.8-10-5.5-13.1-3.6-3.2-8.4-4.7-14.2-4.7H46.2c-.4 0-.8.1-1 .4-.3.3-.4.6-.4 1v32.8c0 .4.1.8.4 1 .3.3.6.4 1 .4h11.7c5.8 0 10.5-1.6 14.1-4.8 3.6-3 5.4-7.4 5.4-13zm-13.3 6c-1.6 1.6-3.7 2.5-6.3 2.5h-2.3V41.6h2.3c2.8 0 4.9.8 6.4 2.3 1.5 1.5 2.2 3.6 2.2 6.1 0 2.3-.7 4.3-2.3 5.9z"/>
        <path d="M84.2 50c-.1 6-1.9 13.4-6.4 17.9h-2.2c4.1-4.8 5.8-12 6-18-.1-5.9-2.5-12.6-5.9-17.8h1.9c4.2 4.8 6.3 11.8 6.6 17.9z"/>
        <path d="M92.1 50c-.1 6-1.9 13.4-6.4 17.9h-2.2c4.1-4.8 5.8-12 6-18-.1-5.9-2.5-12.5-5.9-17.8h1.9c4.2 4.8 6.3 11.8 6.6 17.9z"/>
        <path d="M100 50c-.1 6-1.9 13.4-6.4 17.9h-2.2c4.1-4.8 5.8-12 6-18-.1-5.9-2.5-12.6-5.9-17.8h1.9c4.2 4.8 6.3 11.8 6.6 17.9z"/>
    </g>
</svg>